<svg width="22" height="23" viewBox="0 0 22 23" fill="none" xmlns="http://www.w3.org/2000/svg">
<path d="M19.2225 6.1831L11.66 2.04521C11.4579 1.93356 11.2309 1.875 11 1.875C10.7691 1.875 10.5421 1.93356 10.34 2.04521L2.7775 6.18482C2.56153 6.30299 2.38125 6.47697 2.25547 6.68861C2.1297 6.90024 2.06306 7.14176 2.0625 7.38795V15.607C2.06306 15.8532 2.1297 16.0947 2.25547 16.3063C2.38125 16.518 2.56153 16.692 2.7775 16.8101L10.34 20.9497C10.5421 21.0614 10.7691 21.12 11 21.12C11.2309 21.12 11.4579 21.0614 11.66 20.9497L19.2225 16.8101C19.4385 16.692 19.6188 16.518 19.7445 16.3063C19.8703 16.0947 19.9369 15.8532 19.9375 15.607V7.38881C19.9374 7.14218 19.871 6.90013 19.7452 6.688C19.6194 6.47587 19.4389 6.30148 19.2225 6.1831ZM11 3.24834L17.9042 7.02959L11 10.8108L4.09578 7.02959L11 3.24834ZM3.4375 8.23271L10.3125 11.9951V19.3676L3.4375 15.6079V8.23271ZM11.6875 19.3676V11.9985L18.5625 8.23271V15.6044L11.6875 19.3676Z" fill="black"/>
</svg>
